<svg xmlns="http://www.w3.org/2000/svg" width="64" height="64" viewBox="0 0 64 64" version="1.1"><path d="M 20.147 12.750 L 10.898 23.500 14.699 23.839 C 18.239 24.156, 18.881 23.760, 24.043 18.089 C 27.092 14.740, 30.242 11.990, 31.043 11.977 C 31.844 11.964, 34.975 14.698, 38.001 18.052 C 43.174 23.788, 43.735 24.131, 47.443 23.825 L 51.384 23.500 43.161 14 C 38.638 8.775, 34.484 3.938, 33.929 3.250 C 31.734 0.528, 29.101 2.343, 20.147 12.750 M 1.200 28.200 C -0.596 29.996, -0.248 34.102, 1.898 36.436 C 2.943 37.571, 5.008 43, 6.487 48.500 C 7.967 54, 9.883 59.288, 10.744 60.250 C 12.135 61.804, 14.511 62, 32 62 C 49.489 62, 51.865 61.804, 53.256 60.250 C 54.117 59.288, 56.032 54, 57.510 48.500 C 59.250 42.027, 61.045 37.599, 62.599 35.945 C 64.856 33.543, 66.102 27.201, 64.069 28.457 C 63.557 28.774, 62.856 28.575, 62.510 28.016 C 61.552 26.467, 2.757 26.643, 1.200 28.200 M 0.232 32 C 0.232 33.925, 0.438 34.712, 0.689 33.750 C 0.941 32.788, 0.941 31.212, 0.689 30.250 C 0.438 29.288, 0.232 30.075, 0.232 32 M 12.385 38.439 C 11.766 40.053, 13.724 50.552, 15.147 53.250 C 16.485 55.786, 22 55.646, 22 53.076 C 22 49.326, 19.636 40.475, 18.174 38.750 C 16.378 36.632, 13.145 36.458, 12.385 38.439 M 30.205 37.852 C 29.280 38.439, 28.994 40.932, 29.205 46.587 C 29.492 54.282, 29.569 54.500, 32 54.500 C 34.431 54.500, 34.508 54.282, 34.795 46.587 C 35.069 39.224, 34.428 37.031, 32 37.031 C 31.725 37.031, 30.917 37.400, 30.205 37.852 M 45.866 38.706 C 44.361 40.479, 42 49.292, 42 53.140 C 42 54.779, 42.569 55.072, 45.250 54.813 C 48.041 54.544, 48.680 53.949, 49.772 50.603 C 50.472 48.460, 51.147 44.635, 51.272 42.103 C 51.469 38.132, 51.218 37.460, 49.445 37.206 C 48.314 37.044, 46.704 37.719, 45.866 38.706" stroke="none" fill="#fffcfc" fill-rule="evenodd"/><path d="" stroke="none" fill="#fcfcfc" fill-rule="evenodd"/></svg>