<svg xmlns="http://www.w3.org/2000/svg" width="400" height="400" viewBox="0 0 400 400" version="1.1"><path d="M 160.500 0.923 C 136.554 1.781, 133.135 2.969, 144.406 6.514 C 152.359 9.016, 177.327 8.235, 193.285 4.985 C 204.865 2.628, 205.222 2.615, 213.785 4.238 C 229.703 7.256, 241.906 8.311, 253.628 7.683 C 264.605 7.095, 269.646 5.854, 268.513 4.021 C 268.215 3.538, 268.990 2.947, 270.235 2.708 C 271.481 2.468, 268.450 2.195, 263.500 2.100 C 258.550 2.006, 251.800 1.770, 248.500 1.577 C 233.877 0.720, 177.787 0.303, 160.500 0.923 M 120.195 3.683 C 121.180 3.940, 121.659 4.726, 121.338 5.562 C 120.703 7.216, 123.634 7.517, 125.971 6.039 C 128.038 4.732, 126.801 3.881, 122.333 3.537 C 120.225 3.375, 119.263 3.441, 120.195 3.683 M 250.390 12.584 C 250.033 14.005, 249.981 22.217, 250.274 30.834 C 250.852 47.860, 252.143 55.939, 259.950 91.371 C 265.798 117.916, 270.246 143.778, 272.613 165 C 274.737 184.045, 275.066 229.178, 273.200 245.500 C 268.109 290.035, 256.956 326.690, 236.940 364.666 C 233.123 371.907, 230 378.165, 230 378.573 C 230 379.389, 257.864 378.287, 264.961 377.190 L 269.422 376.500 274.153 361.849 C 283.244 333.698, 286.997 308.902, 286.998 277 C 286.998 250.199, 285.031 229.756, 278.386 187.500 C 264.418 98.682, 264.531 99.679, 264.529 64.500 C 264.527 37.633, 264.701 34.728, 266.892 25 C 268.192 19.225, 269.476 13.488, 269.745 12.250 C 270.225 10.039, 270.067 10, 260.636 10 C 251.149 10, 251.031 10.030, 250.390 12.584 M 147.072 37.430 C 149.509 42.938, 152 55.352, 152 61.984 C 152 66.237, 152.409 67.152, 155.535 69.896 C 157.479 71.603, 159.504 73, 160.035 73 C 161.554 73, 161.161 59.906, 159.471 54.213 C 157.894 48.905, 148.452 33.888, 146.273 33.223 C 145.478 32.981, 145.761 34.465, 147.072 37.430 M 184 53.941 C 184 56.659, 184.455 59.163, 185.011 59.507 C 185.650 59.902, 185.467 60.923, 184.511 62.288 C 182.269 65.489, 182.674 68.899, 185.982 74.667 C 189.505 80.809, 196.874 87.494, 210.982 97.346 C 216.683 101.327, 222.223 105.758, 223.294 107.192 C 227.462 112.775, 221.910 113.533, 210.126 108.988 C 203.092 106.276, 201.952 105.448, 198.651 100.654 C 191.286 89.960, 166.013 64, 162.968 64 C 160.878 64, 163.846 67.729, 172.792 76.346 C 182.516 85.710, 195 99.646, 195 101.136 C 195 102.257, 181.353 94.134, 171.522 87.160 C 158.008 77.574, 139.779 57.888, 142.186 55.481 C 142.515 55.152, 144.477 55.590, 146.545 56.455 C 150.742 58.208, 151.347 58.068, 150.387 55.567 C 149.641 53.621, 146.042 52, 142.470 52 C 135.764 52, 137.827 61.666, 147.185 74.084 C 158.244 88.761, 176.342 103.561, 195.384 113.500 C 200.715 116.282, 203.230 118.199, 203.644 119.797 C 204.502 123.100, 203.829 123.276, 198.899 121.040 C 193.555 118.615, 186.750 118.393, 184.571 120.571 C 182.062 123.081, 182.631 129.027, 185.872 134.137 C 194.233 147.321, 213.378 159.865, 225.295 159.967 C 229.356 160.002, 234 156.559, 234 153.513 C 234 147.658, 223.008 134.597, 212.755 128.268 C 208.380 125.567, 207 124.150, 207 122.358 C 207 119.509, 206.618 119.523, 214.982 122.063 C 223.940 124.784, 229.646 124.380, 232.280 120.837 C 234.986 117.199, 234.001 113.985, 228.322 107.914 L 223.726 103 226.863 103 C 228.718 103, 230.860 102.140, 232.104 100.896 C 234.775 98.225, 234.162 94.549, 230.049 88.571 L 227.067 84.237 230.007 83.649 C 238.730 81.904, 231.888 68.667, 216 56.548 C 208.413 50.761, 208 50.564, 208 52.725 C 208 53.739, 209.255 55.310, 210.789 56.216 C 212.323 57.122, 215.923 60.209, 218.789 63.075 C 223.861 68.146, 225.291 71.006, 222.750 70.994 C 222.063 70.991, 213.410 66.041, 203.522 59.994 C 193.634 53.947, 185.197 49, 184.772 49 C 184.348 49, 184 51.223, 184 53.941 M 229.923 62.338 C 229.217 63.830, 229.440 66.142, 230.339 66.656 C 230.978 67.022, 231.190 66.976, 230.810 66.554 C 229.878 65.517, 232.242 63.067, 233.500 63.765 C 234.050 64.071, 234.149 63.935, 233.721 63.465 C 233.052 62.730, 230.146 61.868, 229.923 62.338 M 188 64.132 C 188 68.305, 198.841 78.468, 210.691 85.403 C 218.484 89.964, 222.697 90.952, 223.660 88.445 C 224.657 85.845, 216.812 79.071, 202.591 70.250 C 191.170 63.167, 188 61.837, 188 64.132 M 142.548 92.757 C 137.072 104.572, 135.971 110.973, 137.882 119.884 C 138.712 123.756, 138.685 126.149, 137.772 129.561 C 136.217 135.378, 138.269 143.790, 144.075 155.389 C 151.470 170.164, 163.697 183.710, 178.420 193.438 C 193.637 203.494, 203.715 207.390, 214.500 207.387 C 226.299 207.384, 232.096 202.815, 232.810 192.956 C 233.186 187.753, 232.830 186.098, 230.180 180.720 C 226.583 173.422, 220.792 167.202, 212.646 161.886 C 192.006 148.418, 176.415 152.986, 185.998 169.694 C 190.169 176.967, 196.843 181.415, 208.250 184.524 C 213.021 185.825, 214.244 185.277, 211.555 183.046 C 210.760 182.386, 208.744 179.717, 207.074 177.115 C 204.672 173.372, 202.887 171.907, 198.532 170.102 C 189.698 166.440, 184.835 158.832, 190.431 157.428 C 199.075 155.258, 220.143 168.917, 224.597 179.578 C 226.666 184.529, 226.334 186.820, 223.077 190.077 C 220.536 192.618, 219.415 193, 214.503 193 C 207.777 193, 196.123 189.329, 187.376 184.455 C 165.799 172.433, 143.442 147.621, 141.342 133.366 L 140.773 129.500 143.728 134.034 C 150.294 144.111, 157.884 150.686, 165.625 153.006 C 171.274 154.698, 174 153.204, 174 148.415 C 174 143.505, 171.968 140.086, 165.586 134.252 C 159.362 128.565, 153.285 125.293, 146.868 124.175 L 142.500 123.415 142.559 118.957 C 142.619 114.402, 144.863 109.097, 152.346 95.815 L 156.112 89.130 152.306 85.592 C 150.213 83.646, 148.275 82.058, 148 82.063 C 147.725 82.067, 145.272 86.880, 142.548 92.757 M 188.200 123.200 C 186.408 124.992, 186.723 126.518, 189.589 129.923 C 192.852 133.802, 197.596 134.123, 200.826 130.686 C 203.934 127.377, 203.556 126.155, 198.750 123.973 C 193.870 121.758, 189.931 121.469, 188.200 123.200 M 145.403 130.813 C 147.709 135.272, 156.090 144.097, 160.946 147.178 C 165.526 150.085, 169.390 150.796, 170.535 148.943 C 173.725 143.783, 155.821 128, 146.778 128 C 143.998 128, 143.974 128.049, 145.403 130.813 M 202.858 133.328 L 199.217 137.591 205.053 141.370 C 212.788 146.378, 220.295 148.830, 222.440 147.049 C 224.800 145.091, 224.356 143.400, 220.307 138.918 C 216.648 134.868, 208.899 128.970, 207.320 129.033 C 206.869 129.051, 204.861 130.984, 202.858 133.328 M 159 191.449 C 159 195.309, 159.430 196.217, 162.250 198.302 C 168.006 202.558, 168 202.560, 168 197.095 C 168 192.415, 167.745 191.899, 164.268 189.536 C 162.215 188.141, 160.190 187, 159.768 187 C 159.346 187, 159 189.002, 159 191.449 M 159 208.941 C 159 211.659, 159.423 214.144, 159.941 214.463 C 160.483 214.798, 160.191 216.248, 159.252 217.884 C 157.735 220.527, 157.747 221.049, 159.427 225.449 C 161.648 231.265, 170.431 240.828, 181.460 249.440 C 200.067 263.969, 206.052 274.836, 195.993 275.825 C 186.474 276.761, 160.928 256.843, 163.396 250.410 C 164.252 248.179, 165.657 248.757, 166.946 251.870 C 168.998 256.823, 176 258.350, 176 253.845 C 176 251.331, 171.717 247.392, 167.452 245.984 C 163.334 244.625, 160.356 245.933, 158.911 249.735 C 156.968 254.844, 159.685 261.169, 168.045 271 C 172.669 276.438, 176.541 282.792, 175.727 283.606 C 175.496 283.837, 173.677 283.345, 171.686 282.513 C 164.012 279.307, 158.727 281.786, 158.727 288.592 C 158.727 296.221, 166.728 307.137, 178.448 315.500 C 190.624 324.188, 200.663 326.428, 205.545 321.545 C 206.895 320.195, 208 317.928, 208 316.506 C 208 309.942, 199.302 299.240, 187.676 291.500 C 182.847 288.286, 180.006 285.696, 179.721 284.250 C 179.477 283.012, 179.400 282, 179.549 282 C 179.698 282, 182.673 283.350, 186.160 284.999 C 200.142 291.614, 211.177 286.770, 208.096 275.371 C 207.038 271.455, 205.124 268.386, 199.285 261.237 L 196.070 257.300 200.935 257.768 C 205.338 258.191, 205.964 257.985, 207.528 255.598 C 209.150 253.122, 209.154 252.692, 207.592 248.602 C 206.677 246.206, 205.044 243.445, 203.964 242.467 C 201.320 240.074, 201.492 239, 204.521 239 C 206.192 239, 207.401 238.213, 208.105 236.668 C 209.522 233.558, 207.529 228.925, 202.185 222.907 C 198.179 218.396, 184.892 207, 183.639 207 C 181.473 207, 183.910 210.407, 189.934 215.801 C 196.313 221.512, 199.009 225.325, 197.637 226.697 C 196.891 227.442, 188.208 222.446, 172.806 212.411 C 165.706 207.785, 159.695 204, 159.448 204 C 159.202 204, 159 206.223, 159 208.941 M 230.976 220.680 C 226.108 226.225, 220.951 234.700, 218.974 240.406 C 214.778 252.516, 215.573 265.891, 222.161 294 C 229.604 325.757, 228.326 336.768, 216.579 342.104 C 206.109 346.859, 187.754 341.303, 170.246 328.079 C 151.917 314.235, 137.103 292.401, 142.020 286.476 C 143.588 284.587, 144.705 285.358, 146.449 289.533 C 148.144 293.589, 152.269 295.159, 154.739 292.690 C 156.165 291.263, 156.152 290.882, 154.600 288.512 C 152.376 285.117, 147.211 282.008, 143.789 282.004 C 142.273 282.002, 140.137 282.992, 138.944 284.250 C 137.076 286.220, 136.865 287.373, 137.250 293.500 C 138.764 317.547, 164.434 347.004, 191.302 355.526 C 205.657 360.079, 218.225 358.555, 225.397 351.393 C 233.274 343.526, 234.308 332.348, 229.180 310.500 C 224.963 292.537, 224 286.681, 224 278.998 C 224 270.195, 226.163 263.338, 230.561 258.200 L 234.167 253.987 231.623 250.964 C 230.224 249.301, 228.765 246.267, 228.380 244.221 C 227.449 239.266, 229.473 227.939, 232.371 221.884 C 233.656 219.198, 234.595 217, 234.458 217 C 234.320 217, 232.753 218.656, 230.976 220.680 M 163.513 218.979 C 162.606 220.446, 164.318 222.990, 169.675 228.133 C 182.783 240.718, 197.141 248.148, 198.775 243.191 C 199.457 241.121, 192.216 235.176, 178.141 226.250 C 170.986 221.713, 164.904 218, 164.625 218 C 164.346 218, 163.846 218.441, 163.513 218.979 M 97.467 282.500 C 97.467 313.300, 97.594 326.044, 97.749 310.821 C 97.904 295.598, 97.905 270.398, 97.749 254.821 C 97.594 239.244, 97.467 251.700, 97.467 282.500 M 304.471 299.500 C 304.471 334.150, 304.596 348.180, 304.750 330.678 C 304.903 313.175, 304.903 284.825, 304.749 267.678 C 304.596 250.530, 304.471 264.850, 304.471 299.500 M 164.250 285.662 C 160.797 287.056, 166.147 296, 170.434 296 C 173.232 296, 176 293.076, 176 290.120 C 176 286.816, 168.471 283.959, 164.250 285.662 M 179 292.423 C 179 293.206, 177.803 295.269, 176.340 297.008 L 173.680 300.169 176.590 302.578 C 181.439 306.592, 191.488 311.187, 194.630 310.828 C 198.344 310.404, 198.923 307.105, 196.004 303.006 C 193.760 299.854, 182.048 291, 180.123 291 C 179.505 291, 179 291.640, 179 292.423 M 111.500 308.669 C 106.240 310.083, 106 311.021, 106 330.203 L 106 348.095 108.622 350.525 C 113.012 354.594, 121.265 355.022, 126.698 351.462 C 128.966 349.976, 129 349.673, 129 331.162 L 129 312.370 125.396 310.652 C 121.478 308.784, 114.682 307.814, 111.500 308.669 M 110.334 315.250 C 109.183 316.829, 109.854 330, 111.085 330 C 111.588 330, 112 326.400, 112 322 C 112 317.600, 111.830 314, 111.622 314 C 111.415 314, 110.835 314.563, 110.334 315.250 M 114.978 316.559 C 112.947 321.901, 112.689 326.667, 114.396 327.322 C 115.278 327.660, 116 328.626, 116 329.469 C 116 331.864, 117.824 331.263, 118.180 328.750 C 118.769 324.608, 117.841 314, 116.890 314 C 116.373 314, 115.513 315.151, 114.978 316.559 M 120.419 315.349 C 120.135 316.091, 120.036 319.804, 120.201 323.599 C 120.488 330.214, 120.604 330.500, 123 330.500 C 125.394 330.500, 125.513 330.210, 125.798 323.660 C 126.099 316.734, 125.122 314, 122.346 314 C 121.571 314, 120.704 314.607, 120.419 315.349 M 122 323.059 C 122 326.844, 122.375 328.886, 123 328.500 C 123.550 328.160, 124 325.434, 124 322.441 C 124 319.448, 123.550 317, 123 317 C 122.443 317, 122 319.686, 122 323.059 M 115.195 322.500 C 115.215 324.150, 115.439 324.704, 115.693 323.731 C 115.947 322.758, 115.930 321.408, 115.656 320.731 C 115.382 320.054, 115.175 320.850, 115.195 322.500 M 107.384 333.442 C 106.090 336.815, 107.477 338.492, 112.336 339.432 C 116.013 340.143, 117.347 340.057, 117.957 339.069 C 118.433 338.300, 118.909 338.190, 119.129 338.798 C 119.333 339.361, 121.300 339.962, 123.500 340.133 C 127 340.406, 127.462 340.198, 127.200 338.472 C 127.035 337.388, 126.847 335.938, 126.783 335.250 C 126.714 334.509, 125.104 333.955, 122.833 333.889 C 120.725 333.828, 117.990 333.728, 116.755 333.667 C 115.036 333.582, 114.361 334.252, 113.873 336.528 L 113.237 339.500 113.019 336 C 112.816 332.741, 112.746 332.672, 112 335 C 111.210 337.466, 111.198 337.469, 111.100 335.191 C 111.045 333.921, 110.570 333.148, 110.044 333.473 C 109.518 333.798, 109.323 334.679, 109.612 335.431 C 109.900 336.183, 109.585 337.138, 108.912 337.554 C 108.001 338.117, 107.849 337.504, 108.319 335.155 C 108.965 331.927, 108.378 330.852, 107.384 333.442 M 123.280 336.933 C 123.182 338.229, 123.732 338.821, 124.948 338.729 C 126.436 338.617, 126.561 338.270, 125.641 336.796 C 124.193 334.479, 123.462 334.521, 123.280 336.933 M 109.273 344.022 C 109.190 345.134, 109.497 345.811, 109.956 345.527 C 110.415 345.244, 111.035 345.649, 111.334 346.428 C 111.648 347.247, 112.683 347.634, 113.786 347.346 C 115.185 346.980, 115.570 346.201, 115.230 344.423 C 114.616 341.212, 109.511 340.868, 109.273 344.022 M 117.667 342.667 C 117.300 343.033, 117 344.383, 117 345.667 C 117 347.722, 117.476 348, 121 348 C 124.293 348, 125 347.657, 125 346.059 C 125 343.658, 123.048 342.304, 122.009 343.985 C 121.412 344.951, 121.122 344.924, 120.700 343.863 C 120.312 342.887, 120.135 342.981, 120.079 344.191 C 120.036 345.121, 119.484 346.201, 118.854 346.590 C 118.048 347.089, 117.905 346.514, 118.373 344.649 C 119.048 341.962, 118.870 341.463, 117.667 342.667 M 107.810 363.500 C 108.035 365.425, 108.395 367, 108.609 367 C 108.824 367, 109 365.425, 109 363.500 C 109 361.575, 108.640 360, 108.201 360 C 107.761 360, 107.585 361.575, 107.810 363.500 M 111 361 C 111 361.550, 111.745 362, 112.655 362 C 114.195 362, 114.195 362.127, 112.655 363.829 C 110.355 366.370, 110.589 368.003, 113.250 367.985 C 114.988 367.973, 115.173 367.763, 114.064 367.061 C 112.880 366.311, 112.856 365.879, 113.926 364.589 C 114.640 363.729, 114.963 362.345, 114.643 361.513 C 114.001 359.839, 111 359.416, 111 361 M 118.176 365.671 C 118.411 367.725, 119.048 368.500, 120.500 368.500 C 123.578 368.500, 123.280 363.611, 120.176 363.171 C 118.155 362.884, 117.894 363.211, 118.176 365.671 M 124.926 364.411 C 125.727 365.376, 125.765 366.027, 125.049 366.470 C 123.224 367.598, 123.913 369.003, 126.250 368.921 C 127.487 368.878, 127.919 368.609, 127.208 368.324 C 126.183 367.912, 126.170 367.500, 127.144 366.327 C 128.125 365.145, 128.083 364.665, 126.936 363.939 C 124.752 362.558, 123.610 362.826, 124.926 364.411 M 119.500 365 C 119.101 365.646, 119.224 366.624, 119.774 367.174 C 120.441 367.841, 121.016 367.783, 121.500 367 C 121.899 366.354, 121.776 365.376, 121.226 364.826 C 120.559 364.159, 119.984 364.217, 119.500 365 M 147.056 384.223 C 150.121 387.578, 150.700 389, 149 389 C 148.450 389, 148 389.630, 148 390.401 C 148 391.171, 150.028 392.634, 152.508 393.651 C 156.930 395.465, 156.963 395.512, 154.258 396.154 C 152.741 396.514, 158.250 396.566, 166.500 396.269 C 174.750 395.973, 182.287 395.325, 183.250 394.830 C 185.258 393.797, 185.618 391.015, 183.750 390.970 C 183.056 390.953, 183.279 390.486, 184.250 389.920 C 186.795 388.437, 186.401 386.668, 183.090 384.712 C 180.125 382.961, 163.167 381.049, 150.306 381.016 L 144.113 381 147.056 384.223 M 221.500 383 C 217.650 383.356, 215.360 383.726, 216.411 383.823 C 219.190 384.080, 224.143 389.974, 223.440 392.188 C 222.619 394.776, 225.587 395.600, 238.500 396.369 C 245.938 396.812, 249.014 396.702, 248 396.028 C 246.667 395.141, 246.667 395.028, 248 395.010 C 251.427 394.962, 257 392.809, 257 391.532 C 257 390.777, 255.650 389.862, 254 389.500 C 251.339 388.915, 249.679 387, 251.833 387 C 253.063 387, 252.876 383.619, 251.599 382.765 C 250.323 381.912, 231.703 382.057, 221.500 383 M 167.762 397.707 C 169.006 397.946, 170.806 397.937, 171.762 397.687 C 172.718 397.437, 171.700 397.241, 169.500 397.252 C 167.300 397.263, 166.518 397.468, 167.762 397.707 M 229.762 397.707 C 231.006 397.946, 232.806 397.937, 233.762 397.687 C 234.718 397.437, 233.700 397.241, 231.500 397.252 C 229.300 397.263, 228.518 397.468, 229.762 397.707 M 192.269 398.693 C 193.242 398.947, 194.592 398.930, 195.269 398.656 C 195.946 398.382, 195.150 398.175, 193.500 398.195 C 191.850 398.215, 191.296 398.439, 192.269 398.693 M 203.762 398.707 C 205.006 398.946, 206.806 398.937, 207.762 398.687 C 208.718 398.437, 207.700 398.241, 205.500 398.252 C 203.300 398.263, 202.518 398.468, 203.762 398.707" stroke="none" fill="#efeaea" fill-rule="evenodd"/><path d="M 137 1.554 C 136.175 1.732, 132.800 2.206, 129.500 2.608 C 126.200 3.009, 124.287 3.520, 125.250 3.742 C 127.429 4.246, 127.514 5.589, 125.418 6.393 C 122.520 7.505, 120.753 7.085, 121.387 5.434 C 121.857 4.209, 121.391 3.937, 119.244 4.184 C 116.529 4.497, 116.503 4.568, 116.812 11 C 117.143 17.887, 117.318 17.407, 108.863 32.829 C 103.188 43.181, 102.064 45.458, 100.097 50.602 C 98.195 55.576, 98.142 59.581, 97.995 209.602 C 97.912 294.246, 97.879 365.174, 97.922 367.219 C 97.993 370.603, 98.495 371.255, 103.495 374.454 C 106.518 376.387, 110.456 378.627, 112.245 379.432 C 116.339 381.271, 119 383.396, 119 384.825 C 119 386.769, 125.139 393, 127.055 393 C 128.071 393, 131.367 393.642, 134.378 394.426 C 139.399 395.734, 146.903 396.339, 154.500 396.049 C 157.340 395.941, 157.247 395.823, 152.750 393.840 C 148.564 391.994, 146.244 389, 149 389 C 150.700 389, 150.121 387.578, 147.056 384.223 L 144.113 381 150.306 381.016 C 163.167 381.049, 180.125 382.961, 183.090 384.712 C 186.401 386.668, 186.795 388.437, 184.250 389.920 C 183.279 390.486, 183.056 390.953, 183.750 390.970 C 185.698 391.017, 185.219 393.813, 183.066 394.965 C 182.002 395.534, 176.939 396.062, 171.816 396.137 L 162.500 396.274 169 397.109 C 177.373 398.186, 221.938 398.189, 233 397.114 L 241.500 396.287 234.815 396.144 C 226.384 395.962, 222.654 394.665, 223.440 392.188 C 224.145 389.969, 219.181 384.073, 216.411 383.838 C 215.360 383.749, 217.875 383.358, 222 382.969 C 232.316 381.996, 250.263 381.872, 251.599 382.765 C 252.876 383.619, 253.063 387, 251.833 387 C 249.679 387, 251.339 388.915, 254 389.500 C 255.650 389.862, 257 390.777, 257 391.532 C 257 392.802, 251.487 394.941, 248 395.025 C 246.667 395.057, 246.667 395.152, 248 395.886 C 249.823 396.888, 265.597 395.477, 272.500 393.694 C 276.785 392.588, 277.976 391.697, 280.829 387.470 C 283.917 382.895, 288.339 379.554, 296.520 375.618 C 299.764 374.057, 302.352 371.477, 303.260 368.897 C 303.571 368.015, 304.146 299.615, 304.539 216.897 C 305.094 100.302, 304.979 64.702, 304.030 58.500 C 302.746 50.105, 301.854 48.139, 290.648 29 C 284.566 18.612, 284.503 18.426, 284.743 11.555 C 284.907 6.877, 284.580 4.352, 283.743 3.820 C 281.939 2.674, 267.755 2.795, 268.469 3.950 C 269.646 5.854, 264.745 7.087, 253.628 7.683 C 241.906 8.311, 229.703 7.256, 213.785 4.238 C 205.222 2.615, 204.865 2.628, 193.285 4.985 C 177.327 8.235, 152.359 9.016, 144.406 6.514 C 137.743 4.418, 136.968 3.353, 141.214 2.128 L 144.500 1.180 141.500 1.206 C 139.850 1.220, 137.825 1.377, 137 1.554 M 250.390 12.584 C 250.033 14.005, 249.981 22.217, 250.274 30.834 C 250.852 47.860, 252.143 55.939, 259.950 91.371 C 265.798 117.916, 270.246 143.778, 272.613 165 C 274.737 184.045, 275.066 229.178, 273.200 245.500 C 268.109 290.035, 256.956 326.690, 236.940 364.666 C 233.123 371.907, 230 378.165, 230 378.573 C 230 379.389, 257.864 378.287, 264.961 377.190 L 269.422 376.500 274.153 361.849 C 283.244 333.698, 286.997 308.902, 286.998 277 C 286.998 250.199, 285.031 229.756, 278.386 187.500 C 264.418 98.682, 264.531 99.679, 264.529 64.500 C 264.527 37.633, 264.701 34.728, 266.892 25 C 268.192 19.225, 269.476 13.488, 269.745 12.250 C 270.225 10.039, 270.067 10, 260.636 10 C 251.149 10, 251.031 10.030, 250.390 12.584 M 147.072 37.430 C 149.509 42.938, 152 55.352, 152 61.984 C 152 66.237, 152.409 67.152, 155.535 69.896 C 157.479 71.603, 159.504 73, 160.035 73 C 161.554 73, 161.161 59.906, 159.471 54.213 C 157.894 48.905, 148.452 33.888, 146.273 33.223 C 145.478 32.981, 145.761 34.465, 147.072 37.430 M 184 53.941 C 184 56.659, 184.455 59.163, 185.011 59.507 C 185.650 59.902, 185.467 60.923, 184.511 62.288 C 182.269 65.489, 182.674 68.899, 185.982 74.667 C 189.505 80.809, 196.874 87.494, 210.982 97.346 C 216.683 101.327, 222.223 105.758, 223.294 107.192 C 227.462 112.775, 221.910 113.533, 210.126 108.988 C 203.092 106.276, 201.952 105.448, 198.651 100.654 C 191.286 89.960, 166.013 64, 162.968 64 C 160.878 64, 163.846 67.729, 172.792 76.346 C 182.516 85.710, 195 99.646, 195 101.136 C 195 102.257, 181.353 94.134, 171.522 87.160 C 158.008 77.574, 139.779 57.888, 142.186 55.481 C 142.515 55.152, 144.477 55.590, 146.545 56.455 C 150.742 58.208, 151.347 58.068, 150.387 55.567 C 149.641 53.621, 146.042 52, 142.470 52 C 135.764 52, 137.827 61.666, 147.185 74.084 C 158.244 88.761, 176.342 103.561, 195.384 113.500 C 200.715 116.282, 203.230 118.199, 203.644 119.797 C 204.502 123.100, 203.829 123.276, 198.899 121.040 C 193.555 118.615, 186.750 118.393, 184.571 120.571 C 182.062 123.081, 182.631 129.027, 185.872 134.137 C 194.233 147.321, 213.378 159.865, 225.295 159.967 C 229.356 160.002, 234 156.559, 234 153.513 C 234 147.658, 223.008 134.597, 212.755 128.268 C 208.380 125.567, 207 124.150, 207 122.358 C 207 119.509, 206.618 119.523, 214.982 122.063 C 223.940 124.784, 229.646 124.380, 232.280 120.837 C 234.986 117.199, 234.001 113.985, 228.322 107.914 L 223.726 103 226.863 103 C 228.718 103, 230.860 102.140, 232.104 100.896 C 234.775 98.225, 234.162 94.549, 230.049 88.571 L 227.067 84.237 230.007 83.649 C 238.730 81.904, 231.888 68.667, 216 56.548 C 208.413 50.761, 208 50.564, 208 52.725 C 208 53.739, 209.255 55.310, 210.789 56.216 C 212.323 57.122, 215.923 60.209, 218.789 63.075 C 223.861 68.146, 225.291 71.006, 222.750 70.994 C 222.063 70.991, 213.410 66.041, 203.522 59.994 C 193.634 53.947, 185.197 49, 184.772 49 C 184.348 49, 184 51.223, 184 53.941 M 229.923 62.338 C 229.217 63.830, 229.440 66.142, 230.339 66.656 C 230.978 67.022, 231.190 66.976, 230.810 66.554 C 229.878 65.517, 232.242 63.067, 233.500 63.765 C 234.050 64.071, 234.149 63.935, 233.721 63.465 C 233.052 62.730, 230.146 61.868, 229.923 62.338 M 188 64.132 C 188 68.305, 198.841 78.468, 210.691 85.403 C 218.484 89.964, 222.697 90.952, 223.660 88.445 C 224.657 85.845, 216.812 79.071, 202.591 70.250 C 191.170 63.167, 188 61.837, 188 64.132 M 142.548 92.757 C 137.072 104.572, 135.971 110.973, 137.882 119.884 C 138.712 123.756, 138.685 126.149, 137.772 129.561 C 136.217 135.378, 138.269 143.790, 144.075 155.389 C 151.470 170.164, 163.697 183.710, 178.420 193.438 C 193.637 203.494, 203.715 207.390, 214.500 207.387 C 226.299 207.384, 232.096 202.815, 232.810 192.956 C 233.186 187.753, 232.830 186.098, 230.180 180.720 C 226.583 173.422, 220.792 167.202, 212.646 161.886 C 192.006 148.418, 176.415 152.986, 185.998 169.694 C 190.169 176.967, 196.843 181.415, 208.250 184.524 C 213.021 185.825, 214.244 185.277, 211.555 183.046 C 210.760 182.386, 208.744 179.717, 207.074 177.115 C 204.672 173.372, 202.887 171.907, 198.532 170.102 C 189.698 166.440, 184.835 158.832, 190.431 157.428 C 199.075 155.258, 220.143 168.917, 224.597 179.578 C 226.666 184.529, 226.334 186.820, 223.077 190.077 C 220.536 192.618, 219.415 193, 214.503 193 C 207.777 193, 196.123 189.329, 187.376 184.455 C 165.799 172.433, 143.442 147.621, 141.342 133.366 L 140.773 129.500 143.728 134.034 C 150.294 144.111, 157.884 150.686, 165.625 153.006 C 171.274 154.698, 174 153.204, 174 148.415 C 174 143.505, 171.968 140.086, 165.586 134.252 C 159.362 128.565, 153.285 125.293, 146.868 124.175 L 142.500 123.415 142.559 118.957 C 142.619 114.402, 144.863 109.097, 152.346 95.815 L 156.112 89.130 152.306 85.592 C 150.213 83.646, 148.275 82.058, 148 82.063 C 147.725 82.067, 145.272 86.880, 142.548 92.757 M 188.200 123.200 C 186.408 124.992, 186.723 126.518, 189.589 129.923 C 192.852 133.802, 197.596 134.123, 200.826 130.686 C 203.934 127.377, 203.556 126.155, 198.750 123.973 C 193.870 121.758, 189.931 121.469, 188.200 123.200 M 145.403 130.813 C 147.709 135.272, 156.090 144.097, 160.946 147.178 C 165.526 150.085, 169.390 150.796, 170.535 148.943 C 173.725 143.783, 155.821 128, 146.778 128 C 143.998 128, 143.974 128.049, 145.403 130.813 M 202.858 133.328 L 199.217 137.591 205.053 141.370 C 212.788 146.378, 220.295 148.830, 222.440 147.049 C 224.800 145.091, 224.356 143.400, 220.307 138.918 C 216.648 134.868, 208.899 128.970, 207.320 129.033 C 206.869 129.051, 204.861 130.984, 202.858 133.328 M 159 191.449 C 159 195.309, 159.430 196.217, 162.250 198.302 C 168.006 202.558, 168 202.560, 168 197.095 C 168 192.415, 167.745 191.899, 164.268 189.536 C 162.215 188.141, 160.190 187, 159.768 187 C 159.346 187, 159 189.002, 159 191.449 M 159 208.941 C 159 211.659, 159.423 214.144, 159.941 214.463 C 160.483 214.798, 160.191 216.248, 159.252 217.884 C 157.735 220.527, 157.747 221.049, 159.427 225.449 C 161.648 231.265, 170.431 240.828, 181.460 249.440 C 200.067 263.969, 206.052 274.836, 195.993 275.825 C 186.474 276.761, 160.928 256.843, 163.396 250.410 C 164.252 248.179, 165.657 248.757, 166.946 251.870 C 168.998 256.823, 176 258.350, 176 253.845 C 176 251.331, 171.717 247.392, 167.452 245.984 C 163.334 244.625, 160.356 245.933, 158.911 249.735 C 156.968 254.844, 159.685 261.169, 168.045 271 C 172.669 276.438, 176.541 282.792, 175.727 283.606 C 175.496 283.837, 173.677 283.345, 171.686 282.513 C 164.012 279.307, 158.727 281.786, 158.727 288.592 C 158.727 296.221, 166.728 307.137, 178.448 315.500 C 190.624 324.188, 200.663 326.428, 205.545 321.545 C 206.895 320.195, 208 317.928, 208 316.506 C 208 309.942, 199.302 299.240, 187.676 291.500 C 182.847 288.286, 180.006 285.696, 179.721 284.250 C 179.477 283.012, 179.400 282, 179.549 282 C 179.698 282, 182.673 283.350, 186.160 284.999 C 200.142 291.614, 211.177 286.770, 208.096 275.371 C 207.038 271.455, 205.124 268.386, 199.285 261.237 L 196.070 257.300 200.935 257.768 C 205.338 258.191, 205.964 257.985, 207.528 255.598 C 209.150 253.122, 209.154 252.692, 207.592 248.602 C 206.677 246.206, 205.044 243.445, 203.964 242.467 C 201.320 240.074, 201.492 239, 204.521 239 C 206.192 239, 207.401 238.213, 208.105 236.668 C 209.522 233.558, 207.529 228.925, 202.185 222.907 C 198.179 218.396, 184.892 207, 183.639 207 C 181.473 207, 183.910 210.407, 189.934 215.801 C 196.313 221.512, 199.009 225.325, 197.637 226.697 C 196.891 227.442, 188.208 222.446, 172.806 212.411 C 165.706 207.785, 159.695 204, 159.448 204 C 159.202 204, 159 206.223, 159 208.941 M 230.976 220.680 C 226.108 226.225, 220.951 234.700, 218.974 240.406 C 214.778 252.516, 215.573 265.891, 222.161 294 C 229.604 325.757, 228.326 336.768, 216.579 342.104 C 206.109 346.859, 187.754 341.303, 170.246 328.079 C 151.917 314.235, 137.103 292.401, 142.020 286.476 C 143.588 284.587, 144.705 285.358, 146.449 289.533 C 148.144 293.589, 152.269 295.159, 154.739 292.690 C 156.165 291.263, 156.152 290.882, 154.600 288.512 C 152.376 285.117, 147.211 282.008, 143.789 282.004 C 142.273 282.002, 140.137 282.992, 138.944 284.250 C 137.076 286.220, 136.865 287.373, 137.250 293.500 C 138.764 317.547, 164.434 347.004, 191.302 355.526 C 205.657 360.079, 218.225 358.555, 225.397 351.393 C 233.274 343.526, 234.308 332.348, 229.180 310.500 C 224.963 292.537, 224 286.681, 224 278.998 C 224 270.195, 226.163 263.338, 230.561 258.200 L 234.167 253.987 231.623 250.964 C 230.224 249.301, 228.765 246.267, 228.380 244.221 C 227.449 239.266, 229.473 227.939, 232.371 221.884 C 233.656 219.198, 234.595 217, 234.458 217 C 234.320 217, 232.753 218.656, 230.976 220.680 M 163.513 218.979 C 162.606 220.446, 164.318 222.990, 169.675 228.133 C 182.783 240.718, 197.141 248.148, 198.775 243.191 C 199.457 241.121, 192.216 235.176, 178.141 226.250 C 170.986 221.713, 164.904 218, 164.625 218 C 164.346 218, 163.846 218.441, 163.513 218.979 M 164.250 285.662 C 160.797 287.056, 166.147 296, 170.434 296 C 173.232 296, 176 293.076, 176 290.120 C 176 286.816, 168.471 283.959, 164.250 285.662 M 179 292.423 C 179 293.206, 177.803 295.269, 176.340 297.008 L 173.680 300.169 176.590 302.578 C 181.439 306.592, 191.488 311.187, 194.630 310.828 C 198.344 310.404, 198.923 307.105, 196.004 303.006 C 193.760 299.854, 182.048 291, 180.123 291 C 179.505 291, 179 291.640, 179 292.423 M 111.500 308.669 C 106.240 310.083, 106 311.021, 106 330.203 L 106 348.095 108.622 350.525 C 113.012 354.594, 121.265 355.022, 126.698 351.462 C 128.966 349.976, 129 349.673, 129 331.162 L 129 312.370 125.396 310.652 C 121.478 308.784, 114.682 307.814, 111.500 308.669 M 110.334 315.250 C 109.183 316.829, 109.854 330, 111.085 330 C 111.588 330, 112 326.400, 112 322 C 112 317.600, 111.830 314, 111.622 314 C 111.415 314, 110.835 314.563, 110.334 315.250 M 114.978 316.559 C 112.947 321.901, 112.689 326.667, 114.396 327.322 C 115.278 327.660, 116 328.626, 116 329.469 C 116 331.864, 117.824 331.263, 118.180 328.750 C 118.769 324.608, 117.841 314, 116.890 314 C 116.373 314, 115.513 315.151, 114.978 316.559 M 120.419 315.349 C 120.135 316.091, 120.036 319.804, 120.201 323.599 C 120.488 330.214, 120.604 330.500, 123 330.500 C 125.394 330.500, 125.513 330.210, 125.798 323.660 C 126.099 316.734, 125.122 314, 122.346 314 C 121.571 314, 120.704 314.607, 120.419 315.349 M 122 323.059 C 122 326.844, 122.375 328.886, 123 328.500 C 123.550 328.160, 124 325.434, 124 322.441 C 124 319.448, 123.550 317, 123 317 C 122.443 317, 122 319.686, 122 323.059 M 115.195 322.500 C 115.215 324.150, 115.439 324.704, 115.693 323.731 C 115.947 322.758, 115.930 321.408, 115.656 320.731 C 115.382 320.054, 115.175 320.850, 115.195 322.500 M 107.384 333.442 C 106.090 336.815, 107.477 338.492, 112.336 339.432 C 116.013 340.143, 117.347 340.057, 117.957 339.069 C 118.433 338.300, 118.909 338.190, 119.129 338.798 C 119.333 339.361, 121.300 339.962, 123.500 340.133 C 127 340.406, 127.462 340.198, 127.200 338.472 C 127.035 337.388, 126.847 335.938, 126.783 335.250 C 126.714 334.509, 125.104 333.955, 122.833 333.889 C 120.725 333.828, 117.990 333.728, 116.755 333.667 C 115.036 333.582, 114.361 334.252, 113.873 336.528 L 113.237 339.500 113.019 336 C 112.816 332.741, 112.746 332.672, 112 335 C 111.210 337.466, 111.198 337.469, 111.100 335.191 C 111.045 333.921, 110.570 333.148, 110.044 333.473 C 109.518 333.798, 109.323 334.679, 109.612 335.431 C 109.900 336.183, 109.585 337.138, 108.912 337.554 C 108.001 338.117, 107.849 337.504, 108.319 335.155 C 108.965 331.927, 108.378 330.852, 107.384 333.442 M 123.280 336.933 C 123.182 338.229, 123.732 338.821, 124.948 338.729 C 126.436 338.617, 126.561 338.270, 125.641 336.796 C 124.193 334.479, 123.462 334.521, 123.280 336.933 M 109.273 344.022 C 109.190 345.134, 109.497 345.811, 109.956 345.527 C 110.415 345.244, 111.035 345.649, 111.334 346.428 C 111.648 347.247, 112.683 347.634, 113.786 347.346 C 115.185 346.980, 115.570 346.201, 115.230 344.423 C 114.616 341.212, 109.511 340.868, 109.273 344.022 M 117.667 342.667 C 117.300 343.033, 117 344.383, 117 345.667 C 117 347.722, 117.476 348, 121 348 C 124.293 348, 125 347.657, 125 346.059 C 125 343.658, 123.048 342.304, 122.009 343.985 C 121.412 344.951, 121.122 344.924, 120.700 343.863 C 120.312 342.887, 120.135 342.981, 120.079 344.191 C 120.036 345.121, 119.484 346.201, 118.854 346.590 C 118.048 347.089, 117.905 346.514, 118.373 344.649 C 119.048 341.962, 118.870 341.463, 117.667 342.667 M 107.810 363.500 C 108.035 365.425, 108.395 367, 108.609 367 C 108.824 367, 109 365.425, 109 363.500 C 109 361.575, 108.640 360, 108.201 360 C 107.761 360, 107.585 361.575, 107.810 363.500 M 111 361 C 111 361.550, 111.745 362, 112.655 362 C 114.195 362, 114.195 362.127, 112.655 363.829 C 110.355 366.370, 110.589 368.003, 113.250 367.985 C 114.988 367.973, 115.173 367.763, 114.064 367.061 C 112.880 366.311, 112.856 365.879, 113.926 364.589 C 114.640 363.729, 114.963 362.345, 114.643 361.513 C 114.001 359.839, 111 359.416, 111 361 M 118.176 365.671 C 118.411 367.725, 119.048 368.500, 120.500 368.500 C 123.578 368.500, 123.280 363.611, 120.176 363.171 C 118.155 362.884, 117.894 363.211, 118.176 365.671 M 124.926 364.411 C 125.727 365.376, 125.765 366.027, 125.049 366.470 C 123.224 367.598, 123.913 369.003, 126.250 368.921 C 127.487 368.878, 127.919 368.609, 127.208 368.324 C 126.183 367.912, 126.170 367.500, 127.144 366.327 C 128.125 365.145, 128.083 364.665, 126.936 363.939 C 124.752 362.558, 123.610 362.826, 124.926 364.411 M 119.500 365 C 119.101 365.646, 119.224 366.624, 119.774 367.174 C 120.441 367.841, 121.016 367.783, 121.500 367 C 121.899 366.354, 121.776 365.376, 121.226 364.826 C 120.559 364.159, 119.984 364.217, 119.500 365" stroke="none" fill="#d02f31" fill-rule="evenodd"/></svg>