<svg xmlns="http://www.w3.org/2000/svg" width="128" height="128" viewBox="0 0 128 128" version="1.1"><path d="M 47.303 5.532 C 8.217 16.062, -11.106 56.933, 6.714 91.387 C 11.305 100.265, 22.992 112.180, 31.500 116.659 C 45.912 124.245, 62.931 126.792, 78 123.618 C 94.098 120.227, 110.351 109.077, 118.880 95.573 C 122.895 89.215, 127 78.861, 127 75.091 C 127 74.006, 127.450 72.840, 128 72.500 C 129.225 71.743, 129.348 55, 128.128 55 C 127.648 55, 126.950 53.087, 126.577 50.750 C 125.631 44.832, 119.922 33.485, 114.800 27.345 C 105.754 16.499, 93.276 8.690, 79.985 5.558 C 71.905 3.654, 54.326 3.640, 47.303 5.532 M 56 6.973 C 41.124 9.033, 30.399 14.373, 19.733 25.030 C 8.114 36.640, 3 48.993, 3 65.444 C 3 78.253, 8.320 91.579, 17.519 101.810 C 21.550 106.294, 22.502 106.832, 27.498 107.456 C 31.192 107.918, 33.999 108.970, 35.976 110.633 C 40.075 114.083, 44.018 115, 54.743 115 C 61.588 115, 64 114.667, 64 113.723 C 64 112.120, 69.745 107, 71.544 107 C 72.280 107, 73.160 107.450, 73.500 108 C 73.840 108.550, 77.488 109, 81.607 109 L 89.095 109 94.048 104.048 C 99.325 98.770, 99.876 96.909, 97.506 92.364 C 96.685 90.789, 96.010 87.867, 96.006 85.871 C 96.001 82.770, 96.441 82.060, 99.038 80.984 C 102.976 79.353, 104.992 76, 102.035 76 C 100.548 76, 100 75.347, 100 73.578 C 100 70.835, 102.977 69.505, 112.795 67.859 C 126.357 65.586, 125 66.337, 125 61.101 C 125 54.774, 122.675 46.282, 118.878 38.743 C 114.445 29.941, 101.692 17.489, 92.705 13.188 C 81.240 7.700, 67.520 5.377, 56 6.973 M 56.500 13.572 C 51.550 14.330, 46.375 15.225, 45 15.561 L 42.500 16.172 45.500 17.836 L 48.500 19.500 45 19.770 C 37.673 20.335, 36.852 20.803, 37.189 24.227 C 37.485 27.231, 37.828 27.467, 44.271 29.087 C 53.772 31.477, 56.358 34.047, 52 36.768 C 49.618 38.256, 49.310 42, 51.570 42 C 55.001 42, 68.077 48.303, 70.419 51.087 C 73.255 54.456, 73.720 54.563, 76.114 52.397 C 77.754 50.913, 78.086 50.995, 80.599 53.508 C 83.118 56.027, 83.584 56.142, 87.071 55.097 C 90.388 54.103, 90.907 53.510, 91.493 50.043 C 91.858 47.883, 92.702 45.662, 93.370 45.108 C 94.037 44.554, 97.608 43.966, 101.305 43.800 L 108.027 43.500 102.938 36 C 97.400 27.839, 92.819 23.495, 88.644 22.447 C 87.173 22.077, 85.130 20.710, 84.106 19.407 C 81.519 16.119, 72.886 11.980, 68.855 12.097 C 67.010 12.150, 61.450 12.814, 56.500 13.572 M 43.500 50.710 C 41.850 50.955, 39.375 52.214, 38 53.509 C 35.832 55.551, 35.259 55.686, 33.686 54.525 C 32.166 53.403, 31.435 53.412, 29.186 54.580 C 27.709 55.347, 25.712 55.725, 24.750 55.420 C 23.788 55.115, 23 55.308, 23 55.849 C 23 56.391, 23.449 56.983, 23.997 57.167 C 24.614 57.373, 24.367 59.702, 23.349 63.279 C 21.727 68.980, 21.735 69.089, 23.940 71.436 C 25.169 72.744, 28.139 74.857, 30.540 76.131 C 34.491 78.227, 34.764 78.603, 33.415 80.094 C 32.301 81.325, 32.172 82.341, 32.906 84.120 C 33.445 85.429, 34.176 89.563, 34.529 93.307 C 35.099 99.352, 35.449 100.220, 37.651 101.057 C 41.571 102.548, 45.838 102.162, 47.866 100.134 C 48.893 99.107, 51.930 97.456, 54.616 96.464 C 64.087 92.968, 66.150 89.148, 63.047 80.855 C 61.412 76.486, 60.281 75.027, 57.497 73.700 C 55.574 72.783, 54 71.576, 54 71.018 C 54 69.369, 47.693 63.291, 45.193 62.531 C 41.904 61.530, 42.848 58.968, 47 57.629 C 49.971 56.671, 50.500 56.047, 50.500 53.500 C 50.500 50.271, 49.405 49.835, 43.500 50.710 M 0.355 64.500 C 0.352 69.450, 0.521 71.601, 0.731 69.280 C 0.940 66.959, 0.943 62.909, 0.736 60.280 C 0.530 57.651, 0.358 59.550, 0.355 64.500" stroke="none" fill="#fffcfc" fill-rule="evenodd"/><path d="" stroke="none" fill="#fcfcfc" fill-rule="evenodd"/></svg>