<svg xmlns="http://www.w3.org/2000/svg" width="1024" height="1024" viewBox="0 0 1024 1024" version="1.1"><path d="M 112 193.573 C 89.516 199.491, 71.110 218.211, 65.395 240.974 C 62.975 250.614, 63.866 268.228, 67.230 277.242 C 74.328 296.262, 89.993 311.464, 108.500 317.295 L 115.500 319.500 512 319.500 L 908.500 319.500 915.500 317.295 C 934.609 311.275, 951.208 294.670, 957.282 275.500 C 960.524 265.267, 960.485 245.349, 957.203 235.853 C 950.807 217.347, 936.263 202.523, 917.242 195.123 L 910.500 192.500 514 192.313 C 170.709 192.150, 116.762 192.320, 112 193.573 M 112 449.573 C 89.516 455.491, 71.110 474.211, 65.395 496.974 C 62.975 506.614, 63.866 524.228, 67.230 533.242 C 74.328 552.262, 89.993 567.464, 108.500 573.295 L 115.500 575.500 512 575.500 L 908.500 575.500 915.500 573.295 C 934.609 567.275, 951.208 550.670, 957.282 531.500 C 960.524 521.267, 960.485 501.349, 957.203 491.853 C 950.807 473.347, 936.263 458.523, 917.242 451.123 L 910.500 448.500 514 448.313 C 170.709 448.150, 116.762 448.320, 112 449.573 M 112 705.573 C 89.516 711.491, 71.110 730.211, 65.395 752.974 C 62.975 762.614, 63.866 780.228, 67.230 789.242 C 74.328 808.262, 89.993 823.464, 108.500 829.295 L 115.500 831.500 512 831.500 L 908.500 831.500 915.500 829.295 C 934.609 823.275, 951.208 806.670, 957.282 787.500 C 960.524 777.267, 960.485 757.349, 957.203 747.853 C 950.807 729.347, 936.263 714.523, 917.242 707.123 L 910.500 704.500 514 704.313 C 170.709 704.150, 116.762 704.320, 112 705.573" stroke="none" fill="#fffcfc" fill-rule="evenodd"/><path d="" stroke="none" fill="#fcfcfc" fill-rule="evenodd"/></svg>