<svg xmlns="http://www.w3.org/2000/svg" width="506" height="535" viewBox="0 0 506 535" version="1.1"><path d="M 246.046 2.430 C 242.387 4.456, 5.077 242.018, 3.283 245.451 C 0.774 250.252, 1.343 258.450, 4.469 262.549 L 7.102 266 36.051 266 L 65 266 65.125 337.750 C 65.194 377.212, 65.306 435.375, 65.375 467 L 65.500 524.500 67.834 527.773 C 69.118 529.573, 71.913 531.935, 74.044 533.023 C 77.785 534.931, 80.136 535, 141.460 535 L 205 535 205.004 436.750 C 205.008 325.070, 204.243 334.518, 213.652 329.887 C 218.458 327.521, 218.821 327.497, 255.335 327.204 C 296.940 326.869, 300.505 327.305, 306.680 333.480 L 310 336.800 310 435.900 L 310 535 369.788 535 L 429.576 535 434.015 532.750 C 436.644 531.418, 439.279 529.073, 440.477 527 C 442.475 523.543, 442.503 521.933, 442.749 395 L 442.998 266.500 471.839 266.235 L 500.679 265.970 503.007 263.493 C 505.527 260.810, 506.833 252.525, 505.559 247.296 C 505.095 245.391, 488.167 227.765, 452.439 191.987 L 400 139.475 400 88.237 L 400 37 374 37 L 348 37 348 62.246 L 348 87.491 305.750 45.292 C 282.512 22.082, 262.233 2.622, 260.685 2.046 C 256.781 0.595, 248.990 0.799, 246.046 2.430" stroke="none" fill="#fbfbfb" fill-rule="evenodd"/></svg>