<svg xmlns="http://www.w3.org/2000/svg" width="64" height="64" viewBox="0 0 64 64" version="1.1"><path d="M 24.420 5.885 C 22.726 6.918, 20.763 9.159, 20.056 10.864 C 18.068 15.664, 19.060 26.616, 22.027 32.610 L 24.511 37.630 15.049 42.054 C 2.113 48.101, 0 50.004, 0 55.603 L 0 60.028 32.250 59.764 L 64.500 59.500 64.809 54.655 C 64.991 51.790, 64.731 50.048, 64.172 50.394 C 63.652 50.715, 62.613 50.233, 61.863 49.321 C 61.113 48.410, 55.721 45.357, 49.879 42.536 L 39.258 37.406 41.671 32.659 C 44.637 26.821, 45.755 16.819, 44.027 11.581 C 41.719 4.587, 31.444 1.603, 24.420 5.885 M 0.286 55.500 C 0.294 58.250, 0.488 59.256, 0.718 57.736 C 0.947 56.216, 0.941 53.966, 0.704 52.736 C 0.467 51.506, 0.279 52.750, 0.286 55.500" stroke="none" fill="#fffcfc" fill-rule="evenodd"/><path d="" stroke="none" fill="#fcfcfc" fill-rule="evenodd"/></svg>